<?xml version="1.0" encoding="utf-8"?>
<!-- Generator: Adobe Illustrator 16.0.0, SVG Export Plug-In . SVG Version: 6.00 Build 0)  -->
<!DOCTYPE svg PUBLIC "-//W3C//DTD SVG 1.1//EN" "http://www.w3.org/Graphics/SVG/1.1/DTD/svg11.dtd">
<svg version="1.1" id="Layer_1" xmlns="http://www.w3.org/2000/svg" xmlns:xlink="http://www.w3.org/1999/xlink" x="0px" y="0px"
	 width="260.5px" height="50px" viewBox="0 0 260.5 50" enable-background="new 0 0 260.5 50" xml:space="preserve">
<g>
	<g>
		<path fill="#0C72BA" d="M55.407,19.516c-0.019-0.515-0.04-1.027-0.069-1.546c0.126,0.017,0.27,0.029,0.425,0.043
			c0.148,0.01,0.321,0.014,0.515,0.014c0.267,0,0.541-0.004,0.833-0.027c0.287-0.016,0.564-0.029,0.839-0.029
			c0.546,0,0.964,0.043,1.272,0.128c0.309,0.081,0.548,0.204,0.722,0.359c0.246,0.209,0.426,0.439,0.54,0.69
			c0.116,0.254,0.172,0.561,0.172,0.918c0,0.457-0.072,0.845-0.219,1.172c-0.143,0.322-0.347,0.59-0.613,0.789
			c-0.263,0.201-0.574,0.35-0.934,0.444c-0.358,0.099-0.752,0.146-1.183,0.146h-0.582c0,0.596,0.01,1.189,0.021,1.78
			c0.006,0.595,0.032,1.178,0.072,1.756c-0.129-0.015-0.271-0.022-0.424-0.022h-0.517h-0.515c-0.155,0-0.299,0.008-0.425,0.022
			c0.029-0.495,0.051-0.993,0.069-1.506c0.015-0.512,0.02-1.1,0.02-1.756V21.27C55.427,20.611,55.422,20.027,55.407,19.516
			 M58.747,19.498c-0.063-0.209-0.154-0.372-0.265-0.497c-0.11-0.123-0.238-0.214-0.388-0.268c-0.149-0.057-0.307-0.082-0.468-0.082
			h-0.264h-0.111c-0.034,0-0.074,0.003-0.102,0.013c-0.01,0.567-0.016,1.132-0.016,1.684c-0.005,0.55-0.01,1.105-0.01,1.659
			c0.188,0,0.387-0.02,0.59-0.059c0.198-0.037,0.387-0.121,0.553-0.244c0.171-0.122,0.306-0.304,0.416-0.53
			c0.104-0.229,0.16-0.536,0.16-0.915C58.844,19.955,58.811,19.7,58.747,19.498"/>
	</g>
	<g>
		<path fill="#0C72BA" d="M63.25,19.282c-0.003-0.191-0.011-0.332-0.026-0.416c-0.116,0-0.255,0-0.424,0.012
			c-0.167,0.005-0.352,0.018-0.538,0.026c-0.193,0.014-0.389,0.025-0.583,0.05c-0.202,0.018-0.38,0.04-0.557,0.065
			c0.021-0.09,0.033-0.175,0.043-0.264c0.016-0.09,0.019-0.173,0.019-0.264c0-0.084-0.003-0.169-0.019-0.26
			c-0.01-0.084-0.022-0.173-0.043-0.264c0.267,0.01,0.498,0.018,0.711,0.026c0.207,0.01,0.419,0.014,0.639,0.021
			c0.219,0.001,0.455,0.007,0.71,0.007c0.254,0.004,0.565,0.004,0.926,0.004c0.356,0,0.663,0,0.923-0.004
			c0.255,0,0.487-0.006,0.703-0.007c0.216-0.007,0.421-0.011,0.621-0.021c0.211-0.009,0.426-0.017,0.663-0.026
			c-0.016,0.091-0.033,0.18-0.042,0.264c-0.009,0.091-0.013,0.176-0.013,0.26c0,0.091,0.004,0.174,0.013,0.264
			c0.009,0.089,0.026,0.174,0.042,0.264c-0.152-0.025-0.322-0.048-0.515-0.065c-0.191-0.024-0.385-0.036-0.571-0.05
			c-0.186-0.009-0.361-0.021-0.53-0.026c-0.171-0.012-0.312-0.012-0.423-0.012c-0.012,0.034-0.016,0.092-0.019,0.163
			c-0.003,0.07-0.007,0.158-0.007,0.253v0.63v2.979c0,0.656,0.01,1.244,0.025,1.756c0.012,0.513,0.036,1.011,0.067,1.506
			c-0.133-0.015-0.271-0.024-0.426-0.024h-0.513h-0.516c-0.156,0-0.293,0.01-0.426,0.024c0.031-0.495,0.052-0.993,0.068-1.506
			c0.013-0.512,0.024-1.1,0.024-1.756v-2.979C63.259,19.684,63.256,19.472,63.25,19.282"/>
	</g>
	<g>
		<path fill="#0C72BA" d="M72.758,23.486c-0.06,0.887-0.119,1.778-0.183,2.666c-0.09-0.015-0.182-0.022-0.278-0.022h-0.259H71.77
			c-0.087,0-0.184,0.008-0.271,0.022c0.247-1.366,0.464-2.725,0.655-4.072c0.186-1.352,0.367-2.719,0.524-4.111
			c0.084,0.021,0.162,0.03,0.235,0.047c0.073,0.007,0.151,0.012,0.239,0.012c0.063,0,0.136-0.005,0.213-0.012
			c0.079-0.017,0.158-0.026,0.24-0.047c0.21,0.478,0.425,0.961,0.648,1.458c0.225,0.49,0.452,0.982,0.675,1.468
			c0.228,0.486,0.454,0.966,0.682,1.436c0.221,0.471,0.438,0.914,0.643,1.334c0.462-0.89,0.915-1.818,1.369-2.791
			c0.46-0.975,0.893-1.943,1.306-2.904c0.187,0.044,0.355,0.059,0.493,0.059c0.13,0,0.289-0.015,0.477-0.059
			c0.079,0.686,0.163,1.42,0.246,2.203c0.092,0.786,0.18,1.559,0.259,2.31c0.087,0.747,0.176,1.448,0.255,2.102
			c0.082,0.647,0.161,1.173,0.23,1.569c-0.15-0.015-0.309-0.022-0.462-0.022H79.96h-0.469c-0.162,0-0.327,0.008-0.48,0.022
			c-0.04-0.813-0.104-1.703-0.192-2.657c-0.089-0.949-0.18-1.896-0.271-2.831h-0.022c-0.434,0.936-0.86,1.855-1.285,2.761
			c-0.42,0.905-0.838,1.817-1.246,2.728c-0.039-0.01-0.076-0.015-0.11-0.015c-0.038-0.005-0.068-0.008-0.108-0.008
			c-0.041,0-0.077,0.003-0.108,0.008c-0.037,0-0.07,0.005-0.112,0.015c-0.408-0.888-0.823-1.779-1.231-2.666
			c-0.407-0.89-0.828-1.793-1.268-2.704h-0.018C72.914,21.693,72.821,22.597,72.758,23.486"/>
	</g>
	<g>
		<path fill="#0C72BA" d="M84.435,26.146c-0.424-0.104-0.789-0.284-1.104-0.533c-0.313-0.251-0.564-0.576-0.742-0.966
			c-0.182-0.393-0.268-0.872-0.268-1.435c0-0.314,0-0.602,0.007-0.852c0-0.255,0.008-0.482,0.008-0.698c0-0.211,0-0.422,0.003-0.621
			c0.005-0.198,0.005-0.403,0.005-0.616c0-0.644,0-1.162-0.008-1.559c-0.008-0.4-0.023-0.698-0.039-0.896
			c0.152,0.014,0.311,0.031,0.47,0.043c0.161,0.01,0.316,0.018,0.468,0.018c0.158,0,0.315-0.008,0.474-0.018
			c0.16-0.012,0.318-0.029,0.47-0.043c-0.079,0.77-0.123,1.489-0.138,2.149c-0.014,0.667-0.021,1.337-0.021,2.02
			c0,0.724,0.049,1.307,0.149,1.751c0.098,0.444,0.247,0.79,0.438,1.031c0.195,0.24,0.436,0.404,0.716,0.479
			c0.284,0.08,0.609,0.123,0.987,0.123c0.455,0,0.82-0.123,1.077-0.36c0.258-0.235,0.454-0.553,0.593-0.952
			c0.129-0.397,0.215-0.851,0.246-1.36c0.029-0.516,0.047-1.049,0.047-1.61c0-0.542-0.01-1.09-0.024-1.629
			c-0.019-0.545-0.039-1.092-0.07-1.642c0.106,0.014,0.209,0.031,0.31,0.043c0.101,0.01,0.193,0.018,0.275,0.018
			c0.099,0,0.199-0.008,0.286-0.018c0.094-0.012,0.189-0.029,0.285-0.043c-0.015,0.176-0.028,0.411-0.044,0.702
			c-0.017,0.295-0.031,0.635-0.045,1.021c-0.015,0.382-0.03,0.808-0.043,1.274c-0.009,0.464-0.02,0.956-0.02,1.468
			c0,1.385-0.283,2.371-0.857,2.972c-0.573,0.603-1.409,0.898-2.521,0.898C85.315,26.306,84.858,26.253,84.435,26.146"/>
	</g>
	<g>
		<path fill="#0C72BA" d="M92.92,22.402v0.486c0,0.658,0.013,1.248,0.023,1.758c0.021,0.513,0.042,1.011,0.075,1.506
			c-0.132-0.015-0.277-0.022-0.425-0.022h-0.521h-0.512c-0.158,0-0.296,0.008-0.425,0.022c0.029-0.495,0.052-0.993,0.069-1.506
			c0.012-0.51,0.019-1.1,0.019-1.758V21.27c0-0.658-0.007-1.242-0.019-1.755c-0.018-0.514-0.04-1.026-0.069-1.546
			c0.129,0.018,0.267,0.03,0.425,0.043c0.151,0.01,0.321,0.015,0.512,0.015c0.205,0,0.443-0.005,0.707-0.027
			c0.262-0.019,0.592-0.03,0.98-0.03c0.288,0,0.537,0.01,0.743,0.025c0.207,0.016,0.383,0.04,0.534,0.071
			c0.15,0.032,0.278,0.074,0.391,0.123c0.11,0.05,0.216,0.113,0.313,0.188c0.228,0.176,0.41,0.389,0.544,0.646
			c0.138,0.262,0.2,0.568,0.2,0.928c0,0.575-0.155,1.051-0.456,1.415c-0.311,0.365-0.748,0.624-1.319,0.771
			c0.369,0.679,0.76,1.349,1.182,2.022c0.421,0.671,0.836,1.335,1.259,1.993c-0.177-0.015-0.345-0.022-0.515-0.022H96.12h-0.519
			c-0.173,0-0.351,0.008-0.521,0.022l-2.055-3.75H92.92z M94.63,19.376c-0.064-0.207-0.176-0.364-0.316-0.472
			c-0.143-0.106-0.323-0.175-0.549-0.203c-0.223-0.037-0.497-0.05-0.81-0.05c-0.022,1.076-0.035,2.155-0.035,3.239
			c0.044,0.008,0.092,0.013,0.136,0.016c0.036,0.009,0.08,0.009,0.12,0.009c0.504,0,0.892-0.144,1.157-0.424
			c0.271-0.284,0.396-0.71,0.396-1.281C94.729,19.859,94.698,19.581,94.63,19.376"/>
	</g>
	<g>
		<path fill="#0C72BA" d="M98.311,18.958c-0.015-0.371-0.026-0.703-0.035-0.989c0.212,0.044,0.388,0.058,0.519,0.058
			c0.125,0,0.296-0.014,0.515-0.058c0.831,0.959,1.654,1.907,2.471,2.838c0.814,0.928,1.647,1.874,2.501,2.831v-1.035v-1.155v-1.152
			c-0.01-0.373-0.013-0.722-0.019-1.039c-0.004-0.317-0.006-0.592-0.019-0.817c-0.012-0.232-0.027-0.39-0.039-0.47
			c0.208,0.044,0.385,0.058,0.514,0.058c0.131,0,0.305-0.014,0.517-0.058c-0.042,0.726-0.069,1.377-0.095,1.962
			c-0.022,0.584-0.04,1.132-0.055,1.648c-0.012,0.518-0.024,1.027-0.029,1.529c-0.003,0.508-0.003,1.044-0.003,1.612v1.432
			c-0.158-0.015-0.313-0.022-0.471-0.022c-0.173,0-0.32,0.008-0.452,0.022c-1.57-1.905-3.243-3.824-5.011-5.753
			c-0.002,0.231-0.008,0.46-0.013,0.691c-0.004,0.229-0.004,0.465-0.004,0.705v1.38c0,0.476,0,0.884,0.004,1.212
			c0.005,0.333,0.011,0.617,0.013,0.844c0.015,0.235,0.02,0.426,0.026,0.569c0.007,0.146,0.017,0.262,0.021,0.352
			c-0.085-0.015-0.179-0.022-0.274-0.022h-0.258c-0.176,0-0.353,0.008-0.53,0.022c0.014-0.06,0.034-0.291,0.058-0.681
			c0.023-0.388,0.049-0.862,0.072-1.42c0.028-0.563,0.051-1.168,0.072-1.824c0.017-0.655,0.029-1.28,0.029-1.889
			C98.335,19.789,98.322,19.331,98.311,18.958"/>
	</g>
	<g>
		<path fill="#0C72BA" d="M107.169,19.516c-0.015-0.515-0.034-1.027-0.071-1.546c0.132,0.018,0.274,0.029,0.428,0.046
			c0.152,0.007,0.326,0.012,0.517,0.012c0.191,0,0.361-0.005,0.517-0.012c0.147-0.017,0.292-0.028,0.422-0.046
			c-0.03,0.519-0.055,1.031-0.064,1.546c-0.021,0.512-0.027,1.098-0.027,1.757v1.618c0,0.659,0.006,1.245,0.027,1.756
			c0.01,0.514,0.034,1.011,0.064,1.506c-0.13-0.015-0.274-0.022-0.422-0.022h-0.517h-0.517c-0.153,0-0.296,0.008-0.428,0.022
			c0.037-0.495,0.057-0.992,0.071-1.506c0.014-0.511,0.025-1.097,0.025-1.756v-1.618C107.194,20.613,107.183,20.027,107.169,19.516"
			/>
	</g>
	<g>
		<path fill="#0C72BA" d="M117.407,18.557c-0.352,0-0.635,0.107-0.858,0.321c-0.225,0.213-0.333,0.462-0.333,0.749
			c0,0.295,0.083,0.534,0.259,0.723c0.17,0.187,0.387,0.35,0.643,0.503c0.264,0.149,0.544,0.295,0.84,0.435
			c0.301,0.141,0.577,0.309,0.838,0.512c0.254,0.205,0.474,0.447,0.646,0.74c0.168,0.29,0.255,0.657,0.255,1.113
			c0,0.396-0.069,0.761-0.215,1.09c-0.146,0.33-0.354,0.611-0.619,0.848c-0.271,0.231-0.588,0.412-0.958,0.535
			c-0.369,0.123-0.787,0.181-1.246,0.181c-0.412,0-0.78-0.045-1.104-0.138c-0.325-0.088-0.57-0.203-0.739-0.337
			c0.08-0.279,0.143-0.532,0.196-0.761c0.054-0.231,0.097-0.48,0.136-0.751h0.218c0.034,0.176,0.088,0.339,0.173,0.494
			c0.082,0.153,0.19,0.292,0.319,0.408c0.13,0.121,0.286,0.218,0.471,0.282c0.185,0.069,0.393,0.103,0.618,0.103
			c0.461,0,0.796-0.118,1.016-0.36c0.217-0.234,0.326-0.522,0.326-0.858c0-0.299-0.083-0.546-0.256-0.735
			c-0.162-0.192-0.371-0.359-0.625-0.505c-0.253-0.147-0.53-0.288-0.825-0.431c-0.297-0.141-0.571-0.306-0.825-0.503
			c-0.253-0.2-0.466-0.444-0.629-0.733c-0.17-0.287-0.254-0.665-0.254-1.113c0-0.412,0.069-0.777,0.213-1.096
			c0.138-0.321,0.328-0.585,0.563-0.801c0.237-0.212,0.508-0.374,0.824-0.485c0.308-0.112,0.634-0.171,0.977-0.171
			c0.415,0,0.773,0.058,1.086,0.154c0.306,0.108,0.574,0.249,0.797,0.434c-0.068,0.183-0.13,0.354-0.181,0.525
			c-0.046,0.175-0.113,0.386-0.19,0.649h-0.168C118.547,18.896,118.086,18.557,117.407,18.557"/>
	</g>
	<g>
		<path fill="#0C72BA" d="M120.84,20.425c0.209-0.518,0.506-0.97,0.888-1.356c0.38-0.391,0.845-0.695,1.386-0.919
			c0.544-0.224,1.149-0.335,1.81-0.335c0.609,0,1.187,0.089,1.711,0.264s0.983,0.437,1.374,0.788
			c0.388,0.348,0.697,0.791,0.92,1.328c0.228,0.534,0.341,1.159,0.341,1.874c0,0.592-0.105,1.151-0.326,1.666
			c-0.22,0.521-0.519,0.968-0.906,1.354c-0.382,0.381-0.849,0.684-1.381,0.896c-0.537,0.216-1.123,0.321-1.76,0.321
			c-0.61,0-1.178-0.075-1.705-0.23c-0.537-0.153-0.994-0.405-1.391-0.749c-0.393-0.344-0.701-0.785-0.933-1.325
			c-0.229-0.53-0.345-1.176-0.345-1.922C120.522,21.495,120.626,20.944,120.84,20.425 M127.199,20.431
			c-0.117-0.408-0.287-0.756-0.505-1.042c-0.216-0.287-0.481-0.507-0.789-0.658c-0.307-0.155-0.65-0.238-1.01-0.238
			c-0.398,0-0.744,0.101-1.052,0.297c-0.31,0.194-0.572,0.456-0.787,0.789c-0.212,0.335-0.375,0.724-0.487,1.172
			c-0.111,0.454-0.164,0.93-0.164,1.438c0,0.634,0.063,1.168,0.194,1.607c0.128,0.436,0.306,0.789,0.525,1.052
			c0.225,0.269,0.477,0.46,0.769,0.583c0.296,0.112,0.594,0.173,0.92,0.173c0.341,0,0.672-0.071,0.981-0.224
			c0.314-0.151,0.588-0.379,0.82-0.691c0.231-0.308,0.422-0.703,0.561-1.179c0.143-0.478,0.215-1.041,0.215-1.69
			C127.391,21.302,127.327,20.835,127.199,20.431"/>
	</g>
	<g>
		<path fill="#0C72BA" d="M130.672,19.516c-0.013-0.515-0.043-1.027-0.072-1.546c0.128,0.018,0.271,0.029,0.423,0.046
			c0.15,0.007,0.322,0.012,0.515,0.012c0.189,0,0.363-0.005,0.514-0.012c0.155-0.017,0.298-0.028,0.427-0.046
			c-0.027,0.519-0.05,1.031-0.07,1.546c-0.013,0.512-0.021,1.098-0.021,1.757v1.618c0,0.449,0,0.89,0.006,1.308
			c0.002,0.425,0.006,0.787,0.015,1.098c0.437,0,0.876-0.012,1.311-0.035c0.438-0.029,0.871-0.065,1.315-0.12
			c-0.02,0.088-0.024,0.167-0.032,0.239c-0.005,0.07-0.013,0.17-0.013,0.298c0,0.129,0.008,0.224,0.013,0.297
			c0.008,0.07,0.013,0.131,0.032,0.178c-0.207-0.01-0.459-0.015-0.759-0.015c-0.304-0.008-0.717-0.008-1.244-0.008h-1.13h-0.691
			c-0.17,0-0.3,0-0.387,0.008c-0.091,0-0.16,0.005-0.223,0.015c0.029-0.495,0.06-0.992,0.072-1.506
			c0.014-0.511,0.018-1.097,0.018-1.756v-1.618C130.689,20.613,130.686,20.027,130.672,19.516"/>
	</g>
	<g>
		<path fill="#0C72BA" d="M138.544,26.146c-0.424-0.104-0.788-0.284-1.104-0.533c-0.313-0.251-0.559-0.576-0.737-0.966
			c-0.179-0.393-0.272-0.872-0.272-1.435c0-0.314,0.003-0.602,0.012-0.852c0-0.255,0.003-0.482,0.003-0.698
			c0-0.211,0-0.422,0.007-0.621c0-0.198,0.005-0.403,0.005-0.616c0-0.644-0.005-1.162-0.012-1.559
			c-0.011-0.4-0.02-0.698-0.033-0.896c0.15,0.014,0.307,0.031,0.47,0.043c0.155,0.01,0.316,0.018,0.467,0.018
			c0.152,0,0.312-0.008,0.473-0.018c0.16-0.012,0.313-0.029,0.468-0.043c-0.074,0.77-0.119,1.489-0.134,2.149
			c-0.021,0.667-0.028,1.337-0.028,2.02c0,0.724,0.056,1.307,0.153,1.751c0.101,0.444,0.246,0.79,0.439,1.031
			c0.193,0.24,0.434,0.404,0.716,0.479c0.286,0.08,0.612,0.123,0.989,0.123c0.457,0,0.814-0.123,1.073-0.36
			c0.26-0.235,0.458-0.553,0.594-0.952c0.134-0.397,0.215-0.851,0.244-1.36c0.026-0.516,0.048-1.049,0.048-1.61
			c0-0.542-0.009-1.09-0.021-1.629c-0.02-0.545-0.042-1.092-0.072-1.642c0.108,0.014,0.214,0.031,0.31,0.043
			c0.105,0.01,0.193,0.018,0.276,0.018c0.098,0,0.195-0.008,0.287-0.018c0.092-0.012,0.188-0.029,0.286-0.043
			c-0.017,0.176-0.028,0.411-0.046,0.702c-0.021,0.295-0.028,0.635-0.048,1.021c-0.012,0.382-0.025,0.808-0.038,1.274
			c-0.01,0.464-0.02,0.956-0.02,1.468c0,1.385-0.284,2.371-0.856,2.972c-0.575,0.603-1.411,0.898-2.521,0.898
			C139.431,26.306,138.974,26.253,138.544,26.146"/>
	</g>
	<g>
		<path fill="#0C72BA" d="M147.333,18.557c-0.351,0-0.641,0.107-0.861,0.321c-0.222,0.213-0.332,0.462-0.332,0.749
			c0,0.295,0.087,0.534,0.262,0.723c0.173,0.187,0.384,0.35,0.645,0.503c0.259,0.149,0.535,0.295,0.839,0.435
			c0.297,0.141,0.575,0.309,0.839,0.512c0.256,0.205,0.475,0.447,0.643,0.74c0.175,0.29,0.259,0.657,0.259,1.113
			c0,0.396-0.072,0.761-0.216,1.09c-0.146,0.33-0.355,0.611-0.617,0.848c-0.271,0.231-0.592,0.412-0.96,0.535
			c-0.374,0.123-0.786,0.181-1.241,0.181c-0.414,0-0.785-0.045-1.106-0.138c-0.329-0.088-0.575-0.203-0.74-0.337
			c0.076-0.279,0.139-0.532,0.193-0.761c0.05-0.231,0.099-0.48,0.138-0.751h0.219c0.03,0.176,0.084,0.339,0.172,0.494
			c0.084,0.153,0.192,0.292,0.318,0.408c0.126,0.121,0.288,0.218,0.469,0.282c0.185,0.069,0.396,0.103,0.623,0.103
			c0.457,0,0.798-0.118,1.014-0.36c0.218-0.234,0.322-0.522,0.322-0.858c0-0.299-0.081-0.546-0.246-0.735
			c-0.171-0.192-0.385-0.359-0.633-0.505c-0.252-0.147-0.527-0.288-0.824-0.431c-0.299-0.141-0.577-0.306-0.822-0.503
			c-0.252-0.2-0.468-0.444-0.634-0.733c-0.17-0.287-0.251-0.665-0.251-1.113c0-0.412,0.07-0.777,0.206-1.096
			c0.144-0.321,0.334-0.585,0.572-0.801c0.233-0.212,0.507-0.374,0.821-0.485c0.311-0.112,0.631-0.171,0.979-0.171
			c0.41,0,0.773,0.058,1.084,0.154c0.303,0.108,0.573,0.249,0.795,0.434c-0.07,0.183-0.131,0.354-0.176,0.525
			c-0.053,0.175-0.113,0.386-0.193,0.649h-0.166C148.477,18.896,148.016,18.557,147.333,18.557"/>
	</g>
	<g>
		<path fill="#0C72BA" d="M151.093,19.516c-0.014-0.515-0.04-1.027-0.066-1.546c0.127,0.018,0.269,0.029,0.422,0.046
			c0.155,0.007,0.329,0.012,0.514,0.012c0.191,0,0.364-0.005,0.52-0.012c0.152-0.017,0.295-0.028,0.421-0.046
			c-0.026,0.519-0.051,1.031-0.065,1.546c-0.014,0.512-0.025,1.098-0.025,1.757v1.618c0,0.659,0.012,1.245,0.025,1.756
			c0.015,0.514,0.039,1.011,0.065,1.506c-0.126-0.015-0.269-0.022-0.421-0.022h-0.52h-0.514c-0.153,0-0.295,0.008-0.422,0.022
			c0.026-0.495,0.053-0.992,0.066-1.506c0.017-0.511,0.026-1.097,0.026-1.756v-1.618C151.119,20.613,151.109,20.027,151.093,19.516"
			/>
	</g>
	<g>
		<path fill="#0C72BA" d="M154.965,18.958c-0.017-0.371-0.026-0.703-0.031-0.989c0.213,0.044,0.391,0.058,0.516,0.058
			c0.13,0,0.302-0.014,0.515-0.058c0.836,0.959,1.66,1.907,2.47,2.838c0.814,0.928,1.65,1.874,2.507,2.831v-1.035v-1.155
			c0-0.385-0.003-0.771-0.003-1.152c-0.008-0.373-0.008-0.722-0.015-1.039c-0.006-0.317-0.012-0.592-0.021-0.817
			c-0.015-0.232-0.03-0.39-0.045-0.47c0.215,0.044,0.387,0.058,0.519,0.058c0.125,0,0.3-0.014,0.516-0.058
			c-0.043,0.726-0.07,1.377-0.092,1.962c-0.026,0.584-0.039,1.132-0.059,1.648c-0.016,0.518-0.029,1.027-0.029,1.529
			c-0.002,0.508-0.009,1.044-0.009,1.612v1.432c-0.151-0.015-0.31-0.022-0.464-0.022c-0.167,0-0.316,0.008-0.448,0.022
			c-1.576-1.905-3.243-3.824-5.014-5.753c-0.005,0.231-0.009,0.46-0.014,0.691c-0.002,0.229-0.008,0.465-0.008,0.705v1.38
			c0,0.476,0.006,0.884,0.008,1.212c0.005,0.333,0.009,0.617,0.014,0.844c0.013,0.235,0.018,0.426,0.027,0.569
			c0.004,0.146,0.013,0.262,0.021,0.352c-0.089-0.015-0.181-0.022-0.272-0.022h-0.268c-0.171,0-0.348,0.008-0.526,0.022
			c0.016-0.06,0.035-0.291,0.061-0.681c0.024-0.388,0.048-0.862,0.071-1.42c0.026-0.563,0.05-1.168,0.068-1.824
			c0.023-0.655,0.028-1.28,0.028-1.889C154.988,19.789,154.983,19.331,154.965,18.958"/>
	</g>
	<g>
		<path fill="#0C72BA" d="M163.787,19.516c-0.02-0.511-0.044-1.027-0.072-1.546c0.132,0.016,0.271,0.033,0.424,0.043
			c0.153,0.01,0.324,0.015,0.514,0.015c0.253,0,0.536-0.005,0.853-0.024c0.309-0.018,0.721-0.033,1.223-0.033
			c0.657,0,1.259,0.065,1.798,0.188c0.532,0.122,1,0.33,1.388,0.623c0.391,0.292,0.695,0.688,0.905,1.188
			c0.216,0.496,0.324,1.124,0.324,1.874c0,0.657-0.108,1.251-0.314,1.787c-0.208,0.532-0.497,0.985-0.861,1.363
			c-0.366,0.379-0.786,0.666-1.263,0.863c-0.476,0.198-0.987,0.296-1.525,0.296c-0.576,0-1.063-0.002-1.468-0.007
			c-0.409-0.011-0.759-0.016-1.059-0.016h-0.514c-0.152,0-0.292,0.008-0.424,0.022c0.028-0.493,0.053-0.992,0.072-1.508
			c0.013-0.51,0.018-1.095,0.018-1.754v-1.618C163.805,20.613,163.8,20.029,163.787,19.516 M165.505,23.761v0.714
			c0,0.229,0,0.438,0.004,0.631c0.005,0.19,0.005,0.313,0.005,0.367c0.11,0.009,0.251,0.02,0.416,0.025
			c0.153,0.008,0.356,0.01,0.591,0.01c0.864,0,1.555-0.306,2.051-0.915c0.507-0.607,0.763-1.533,0.763-2.776
			c0-0.49-0.063-0.929-0.191-1.319c-0.127-0.391-0.304-0.725-0.534-0.995c-0.23-0.274-0.502-0.485-0.823-0.632
			c-0.324-0.148-0.682-0.219-1.08-0.219c-0.269,0-0.501,0.007-0.67,0.015c-0.171,0.015-0.345,0.028-0.521,0.045
			c0,0.053,0,0.178-0.005,0.369c-0.004,0.189-0.004,0.404-0.004,0.643v0.713v0.6v2.116V23.761z"/>
	</g>
	<g>
		<path fill="#0C72BA" d="M172.42,20.425c0.208-0.518,0.505-0.97,0.89-1.356c0.379-0.391,0.841-0.695,1.383-0.919
			c0.545-0.224,1.15-0.335,1.813-0.335c0.61,0,1.18,0.089,1.707,0.264c0.53,0.175,0.984,0.437,1.376,0.788
			c0.39,0.348,0.697,0.791,0.923,1.328c0.228,0.534,0.338,1.159,0.338,1.874c0,0.592-0.105,1.151-0.326,1.666
			c-0.219,0.521-0.522,0.968-0.906,1.354c-0.386,0.381-0.849,0.684-1.381,0.896c-0.538,0.216-1.125,0.321-1.764,0.321
			c-0.604,0-1.175-0.075-1.707-0.23c-0.528-0.153-0.989-0.405-1.386-0.749c-0.392-0.344-0.701-0.785-0.935-1.325
			c-0.229-0.53-0.342-1.176-0.342-1.922C172.104,21.495,172.208,20.944,172.42,20.425 M178.783,20.431
			c-0.123-0.408-0.289-0.756-0.507-1.042c-0.219-0.287-0.479-0.507-0.794-0.658c-0.307-0.155-0.647-0.238-1.01-0.238
			c-0.392,0-0.741,0.101-1.049,0.297c-0.31,0.194-0.573,0.456-0.786,0.789c-0.214,0.335-0.377,0.724-0.49,1.172
			c-0.105,0.454-0.164,0.93-0.164,1.438c0,0.634,0.066,1.168,0.193,1.607c0.131,0.436,0.308,0.789,0.531,1.052
			c0.221,0.269,0.472,0.46,0.767,0.583c0.29,0.112,0.592,0.173,0.914,0.173c0.346,0,0.675-0.071,0.986-0.224
			c0.311-0.151,0.585-0.379,0.822-0.691c0.23-0.308,0.42-0.703,0.561-1.179c0.143-0.478,0.216-1.041,0.216-1.69
			C178.974,21.302,178.909,20.835,178.783,20.431"/>
	</g>
	<g>
		<path fill="#0C72BA" d="M185.536,18.958c-0.016-0.371-0.025-0.703-0.028-0.989c0.206,0.044,0.384,0.058,0.512,0.058
			c0.134,0,0.302-0.014,0.516-0.058c0.835,0.959,1.657,1.907,2.471,2.838c0.813,0.928,1.649,1.874,2.503,2.831v-1.035v-1.155
			c0-0.385-0.002-0.771-0.006-1.152c-0.001-0.373-0.01-0.722-0.01-1.039c-0.006-0.317-0.008-0.592-0.021-0.817
			c-0.016-0.232-0.028-0.39-0.046-0.47c0.219,0.044,0.386,0.058,0.521,0.058c0.128,0,0.3-0.014,0.515-0.058
			c-0.038,0.726-0.07,1.377-0.093,1.962c-0.024,0.584-0.041,1.132-0.056,1.648c-0.021,0.518-0.026,1.027-0.028,1.529
			c-0.004,0.508-0.007,1.044-0.007,1.612v1.432c-0.158-0.015-0.313-0.022-0.467-0.022c-0.171,0-0.32,0.008-0.452,0.022
			c-1.573-1.905-3.24-3.824-5.01-5.753c-0.004,0.231-0.013,0.46-0.013,0.691c-0.005,0.229-0.01,0.465-0.01,0.705v1.38
			c0,0.476,0.005,0.884,0.01,1.212c0,0.333,0.009,0.617,0.013,0.844c0.011,0.235,0.018,0.426,0.028,0.569
			c0.002,0.146,0.012,0.262,0.022,0.352c-0.095-0.015-0.184-0.022-0.274-0.022h-0.269c-0.173,0-0.349,0.008-0.525,0.022
			c0.019-0.06,0.039-0.291,0.059-0.681c0.021-0.388,0.045-0.862,0.075-1.42c0.022-0.563,0.046-1.168,0.063-1.824
			c0.025-0.655,0.032-1.28,0.032-1.889C185.561,19.789,185.554,19.331,185.536,18.958"/>
	</g>
	<g>
		<path fill="#0C72BA" d="M196.504,26.146c-0.425-0.104-0.793-0.284-1.113-0.533c-0.308-0.251-0.555-0.576-0.734-0.966
			c-0.178-0.393-0.267-0.872-0.267-1.435c0-0.314,0-0.602,0.007-0.852c0-0.255,0.003-0.482,0.003-0.698c0-0.211,0-0.422,0.002-0.621
			c0.008-0.198,0.008-0.403,0.008-0.616c0-0.644-0.008-1.162-0.01-1.559c-0.008-0.4-0.021-0.698-0.038-0.896
			c0.153,0.014,0.314,0.031,0.473,0.043c0.163,0.01,0.316,0.018,0.472,0.018c0.153,0,0.308-0.008,0.47-0.018
			c0.163-0.012,0.316-0.029,0.467-0.043c-0.078,0.77-0.118,1.489-0.136,2.149c-0.015,0.667-0.024,1.337-0.024,2.02
			c0,0.724,0.05,1.307,0.147,1.751c0.101,0.444,0.251,0.79,0.444,1.031c0.193,0.24,0.434,0.404,0.715,0.479
			c0.282,0.08,0.614,0.123,0.985,0.123c0.46,0,0.817-0.123,1.082-0.36c0.259-0.235,0.457-0.553,0.588-0.952
			c0.133-0.397,0.216-0.851,0.249-1.36c0.031-0.516,0.042-1.049,0.042-1.61c0-0.542-0.009-1.09-0.02-1.629
			c-0.018-0.545-0.038-1.092-0.068-1.642c0.105,0.014,0.209,0.031,0.307,0.043c0.1,0.01,0.188,0.018,0.281,0.018
			c0.094,0,0.192-0.008,0.278-0.018c0.094-0.012,0.185-0.029,0.284-0.043c-0.01,0.176-0.027,0.411-0.043,0.702
			c-0.014,0.295-0.032,0.635-0.042,1.021c-0.016,0.382-0.035,0.808-0.043,1.274c-0.01,0.464-0.017,0.956-0.017,1.468
			c0,1.385-0.283,2.371-0.86,2.972c-0.572,0.603-1.411,0.898-2.521,0.898C197.381,26.306,196.926,26.253,196.504,26.146"/>
	</g>
	<g>
		<path fill="#0C72BA" d="M205.284,18.557c-0.349,0-0.635,0.107-0.858,0.321c-0.221,0.213-0.329,0.462-0.329,0.749
			c0,0.295,0.087,0.534,0.258,0.723c0.169,0.187,0.39,0.35,0.647,0.503c0.259,0.149,0.536,0.295,0.834,0.435
			c0.297,0.141,0.576,0.309,0.835,0.512c0.258,0.205,0.479,0.447,0.65,0.74c0.173,0.29,0.258,0.657,0.258,1.113
			c0,0.396-0.071,0.761-0.218,1.09c-0.146,0.33-0.35,0.611-0.616,0.848c-0.271,0.231-0.587,0.412-0.96,0.535
			c-0.37,0.123-0.783,0.181-1.244,0.181c-0.409,0-0.78-0.045-1.105-0.138c-0.324-0.088-0.569-0.203-0.735-0.337
			c0.073-0.279,0.14-0.532,0.192-0.761c0.053-0.231,0.1-0.48,0.132-0.751h0.221c0.034,0.176,0.09,0.339,0.174,0.494
			c0.079,0.153,0.193,0.292,0.321,0.408c0.126,0.121,0.286,0.218,0.472,0.282c0.182,0.069,0.387,0.103,0.617,0.103
			c0.455,0,0.797-0.118,1.013-0.36c0.219-0.234,0.326-0.522,0.326-0.858c0-0.299-0.085-0.546-0.251-0.735
			c-0.163-0.192-0.379-0.359-0.633-0.505c-0.25-0.147-0.522-0.288-0.823-0.431c-0.291-0.141-0.57-0.306-0.822-0.503
			c-0.255-0.2-0.466-0.444-0.634-0.733c-0.165-0.287-0.253-0.665-0.253-1.113c0-0.412,0.074-0.777,0.211-1.096
			c0.144-0.321,0.33-0.585,0.571-0.801c0.238-0.212,0.51-0.374,0.82-0.485c0.309-0.112,0.631-0.171,0.976-0.171
			c0.418,0,0.771,0.058,1.087,0.154c0.309,0.108,0.577,0.249,0.793,0.434c-0.067,0.183-0.124,0.354-0.173,0.525
			c-0.053,0.175-0.114,0.386-0.19,0.649h-0.176C206.43,18.896,205.966,18.557,205.284,18.557"/>
	</g>
	<g>
		<path fill="#0C72BA" d="M215.489,26.152c-0.181-0.015-0.359-0.022-0.52-0.022h-0.49h-0.484c-0.166,0-0.329,0.008-0.491,0.022
			c-0.118-0.389-0.244-0.785-0.375-1.189c-0.133-0.405-0.27-0.811-0.416-1.218c-0.242-0.006-0.488-0.011-0.731-0.015
			c-0.245-0.007-0.49-0.007-0.733-0.007c-0.199,0-0.396,0-0.598,0.007c-0.199,0.004-0.396,0.009-0.595,0.015
			c-0.151,0.407-0.294,0.813-0.425,1.218c-0.132,0.404-0.248,0.801-0.353,1.189c-0.092-0.015-0.182-0.022-0.271-0.022h-0.27h-0.271
			c-0.096,0-0.193,0.008-0.304,0.022c0.093-0.203,0.215-0.495,0.372-0.856c0.152-0.366,0.318-0.777,0.502-1.236
			c0.181-0.462,0.382-0.956,0.587-1.485c0.214-0.527,0.42-1.063,0.631-1.604c0.21-0.539,0.422-1.068,0.62-1.59
			c0.206-0.527,0.386-1.015,0.56-1.469c0.073,0.015,0.146,0.028,0.214,0.043c0.072,0.011,0.142,0.016,0.221,0.016
			c0.075,0,0.15-0.005,0.221-0.016c0.067-0.015,0.136-0.028,0.211-0.043c0.248,0.678,0.509,1.396,0.785,2.167
			c0.28,0.772,0.559,1.526,0.844,2.269c0.283,0.743,0.562,1.449,0.827,2.114C215.022,25.13,215.266,25.696,215.489,26.152
			 M211.434,20.211c-0.206,0.474-0.389,0.945-0.567,1.412c-0.173,0.464-0.344,0.938-0.512,1.423h2.097
			c-0.165-0.485-0.334-0.959-0.496-1.423C211.789,21.156,211.614,20.685,211.434,20.211"/>
	</g>
	<g>
		<path fill="#0C72BA" d="M216.75,18.958c-0.016-0.371-0.029-0.703-0.037-0.989c0.215,0.044,0.39,0.058,0.519,0.058
			c0.13,0,0.302-0.014,0.517-0.058c0.832,0.959,1.654,1.907,2.468,2.838c0.82,0.928,1.648,1.874,2.504,2.831v-1.035v-1.155
			c0-0.385-0.001-0.771-0.001-1.152c-0.003-0.373-0.009-0.722-0.016-1.039c-0.002-0.317-0.01-0.592-0.02-0.817
			c-0.012-0.232-0.024-0.39-0.04-0.47c0.208,0.044,0.388,0.058,0.513,0.058c0.132,0,0.306-0.014,0.517-0.058
			c-0.04,0.726-0.068,1.377-0.091,1.962c-0.025,0.584-0.043,1.132-0.053,1.648c-0.022,0.518-0.03,1.027-0.032,1.529
			c-0.008,0.508-0.008,1.044-0.008,1.612v1.432c-0.155-0.015-0.307-0.022-0.47-0.022c-0.168,0-0.316,0.008-0.449,0.022
			c-1.576-1.905-3.242-3.824-5.007-5.753c-0.005,0.231-0.01,0.46-0.018,0.691c-0.005,0.229-0.005,0.465-0.005,0.705v1.38
			c0,0.476,0,0.884,0.005,1.212c0.008,0.333,0.013,0.617,0.018,0.844c0.009,0.235,0.017,0.426,0.025,0.569
			c0.007,0.146,0.012,0.262,0.02,0.352c-0.09-0.015-0.181-0.022-0.273-0.022h-0.267c-0.173,0-0.349,0.008-0.524,0.022
			c0.014-0.06,0.037-0.291,0.058-0.681c0.021-0.388,0.048-0.862,0.073-1.42c0.027-0.563,0.05-1.168,0.07-1.824
			c0.021-0.655,0.031-1.28,0.031-1.889C216.776,19.789,216.766,19.331,216.75,18.958"/>
	</g>
	<g>
		<path fill="#0C72BA" d="M226.932,19.282c0-0.191-0.01-0.332-0.028-0.416c-0.114,0-0.255,0-0.424,0.012
			c-0.169,0.005-0.346,0.018-0.541,0.026c-0.189,0.014-0.383,0.025-0.582,0.05c-0.197,0.018-0.379,0.04-0.546,0.065
			c0.015-0.09,0.029-0.175,0.035-0.264c0.014-0.09,0.022-0.173,0.022-0.264c0-0.084-0.009-0.169-0.022-0.26
			c-0.006-0.084-0.021-0.173-0.035-0.264c0.258,0.01,0.491,0.018,0.702,0.026c0.213,0.01,0.426,0.014,0.64,0.021
			c0.221,0.001,0.456,0.007,0.712,0.007c0.256,0.004,0.567,0.004,0.924,0.004c0.359,0,0.664,0,0.924-0.004
			c0.254,0,0.487-0.006,0.707-0.007c0.211-0.007,0.421-0.011,0.619-0.021c0.208-0.009,0.424-0.017,0.66-0.026
			c-0.015,0.091-0.027,0.18-0.039,0.264c-0.013,0.091-0.019,0.176-0.019,0.26c0,0.091,0.006,0.174,0.019,0.264
			c0.012,0.089,0.024,0.174,0.039,0.264c-0.15-0.025-0.327-0.048-0.512-0.065c-0.192-0.024-0.389-0.036-0.573-0.05
			c-0.187-0.009-0.363-0.021-0.53-0.026c-0.17-0.012-0.311-0.012-0.429-0.012c-0.005,0.034-0.008,0.092-0.015,0.163
			c-0.003,0.07-0.003,0.158-0.003,0.253v0.63v2.979c0,0.656,0.008,1.244,0.018,1.756c0.019,0.513,0.043,1.011,0.071,1.506
			c-0.129-0.015-0.265-0.024-0.422-0.024h-0.516h-0.516c-0.154,0-0.295,0.01-0.425,0.024c0.029-0.495,0.056-0.993,0.066-1.506
			c0.018-0.512,0.028-1.1,0.028-1.756v-2.979C226.942,19.684,226.94,19.472,226.932,19.282"/>
	</g>
	<g>
		<path fill="#0C72BA" d="M237.576,26.152c-0.186-0.015-0.359-0.022-0.522-0.022h-0.487h-0.481c-0.171,0-0.329,0.008-0.49,0.022
			c-0.123-0.389-0.251-0.785-0.38-1.189c-0.13-0.405-0.268-0.811-0.413-1.218c-0.242-0.006-0.487-0.011-0.731-0.015
			c-0.246-0.007-0.492-0.007-0.734-0.007c-0.202,0-0.397,0-0.598,0.007c-0.197,0.004-0.397,0.009-0.595,0.015
			c-0.152,0.407-0.298,0.813-0.426,1.218c-0.133,0.404-0.246,0.801-0.354,1.189c-0.094-0.015-0.176-0.022-0.275-0.022h-0.263h-0.279
			c-0.09,0-0.19,0.008-0.298,0.022c0.09-0.203,0.221-0.495,0.371-0.856c0.151-0.366,0.319-0.777,0.503-1.236
			c0.182-0.462,0.38-0.956,0.591-1.485c0.211-0.527,0.418-1.063,0.629-1.604c0.206-0.539,0.412-1.068,0.62-1.59
			c0.205-0.527,0.387-1.015,0.558-1.469c0.075,0.015,0.148,0.028,0.216,0.043c0.067,0.011,0.144,0.016,0.217,0.016
			c0.076,0,0.15-0.005,0.218-0.016c0.07-0.015,0.144-0.028,0.215-0.043c0.247,0.678,0.511,1.396,0.787,2.167
			c0.279,0.772,0.562,1.526,0.845,2.269c0.285,0.743,0.557,1.449,0.828,2.114C237.111,25.13,237.354,25.696,237.576,26.152
			 M233.521,20.211c-0.199,0.474-0.389,0.945-0.566,1.412c-0.173,0.464-0.343,0.938-0.516,1.423h2.102
			c-0.171-0.485-0.339-0.959-0.499-1.423C233.88,21.156,233.703,20.685,233.521,20.211"/>
	</g>
	<g>
		<path fill="#0C72BA" d="M240.45,22.402v0.486c0,0.658,0.01,1.248,0.028,1.758c0.018,0.513,0.034,1.011,0.068,1.506
			c-0.128-0.015-0.271-0.022-0.42-0.022h-0.522h-0.512c-0.153,0-0.294,0.008-0.427,0.022c0.032-0.495,0.055-0.993,0.069-1.506
			c0.016-0.51,0.021-1.1,0.021-1.758V21.27c0-0.658-0.005-1.242-0.021-1.755c-0.015-0.514-0.037-1.026-0.069-1.546
			c0.133,0.018,0.273,0.03,0.427,0.043c0.15,0.01,0.321,0.015,0.512,0.015c0.208,0,0.445-0.005,0.711-0.027
			c0.262-0.019,0.585-0.03,0.975-0.03c0.29,0,0.54,0.01,0.745,0.025c0.209,0.016,0.387,0.04,0.53,0.071
			c0.153,0.032,0.284,0.074,0.396,0.123c0.104,0.05,0.21,0.113,0.31,0.188c0.23,0.176,0.416,0.389,0.546,0.646
			c0.137,0.262,0.204,0.568,0.204,0.928c0,0.575-0.155,1.051-0.463,1.415c-0.305,0.365-0.742,0.624-1.314,0.771
			c0.366,0.679,0.758,1.349,1.178,2.022c0.424,0.671,0.84,1.335,1.266,1.993c-0.179-0.015-0.35-0.022-0.521-0.022h-0.512h-0.524
			c-0.169,0-0.345,0.008-0.521,0.022l-2.049-3.75H240.45z M242.162,19.376c-0.071-0.207-0.174-0.364-0.317-0.472
			c-0.138-0.106-0.32-0.175-0.549-0.203c-0.227-0.037-0.49-0.05-0.805-0.05c-0.027,1.076-0.041,2.155-0.041,3.239
			c0.049,0.008,0.092,0.013,0.134,0.016c0.048,0.009,0.082,0.009,0.121,0.009c0.507,0,0.896-0.144,1.16-0.424
			c0.269-0.284,0.401-0.71,0.401-1.281C242.267,19.859,242.23,19.581,242.162,19.376"/>
	</g>
	<g>
		<path fill="#0C72BA" d="M252.227,26.152c-0.185-0.015-0.354-0.022-0.523-0.022h-0.481h-0.494c-0.167,0-0.328,0.008-0.483,0.022
			c-0.126-0.389-0.251-0.785-0.379-1.189c-0.136-0.405-0.271-0.811-0.417-1.218c-0.244-0.006-0.491-0.011-0.73-0.015
			c-0.249-0.007-0.491-0.007-0.731-0.007c-0.2,0-0.402,0-0.6,0.007c-0.201,0.004-0.395,0.009-0.596,0.015
			c-0.152,0.407-0.293,0.813-0.424,1.218c-0.133,0.404-0.247,0.801-0.352,1.189c-0.094-0.015-0.186-0.022-0.272-0.022h-0.272h-0.273
			c-0.091,0-0.189,0.008-0.301,0.022c0.097-0.203,0.218-0.495,0.372-0.856c0.155-0.366,0.322-0.777,0.501-1.236
			c0.184-0.462,0.382-0.956,0.595-1.485c0.206-0.527,0.416-1.063,0.628-1.604c0.211-0.539,0.416-1.068,0.618-1.59
			c0.206-0.527,0.385-1.015,0.555-1.469c0.08,0.015,0.15,0.028,0.225,0.043c0.064,0.011,0.139,0.016,0.217,0.016
			c0.073,0,0.143-0.005,0.219-0.016c0.063-0.015,0.132-0.028,0.214-0.043c0.242,0.678,0.51,1.396,0.784,2.167
			c0.277,0.772,0.562,1.526,0.843,2.269c0.282,0.743,0.556,1.449,0.825,2.114C251.756,25.13,252.002,25.696,252.227,26.152
			 M248.165,20.211c-0.193,0.474-0.386,0.945-0.56,1.412c-0.174,0.464-0.349,0.938-0.516,1.423h2.099
			c-0.167-0.485-0.333-0.959-0.501-1.423C248.528,21.156,248.354,20.685,248.165,20.211"/>
	</g>
	<g>
		<path fill-rule="evenodd" clip-rule="evenodd" fill="#0C72BA" d="M40.672,18.07c-0.042,0.098-1.209,1.834-1.363,1.952
			c0.417,0.441,0.742,0.791,0.742,0.791c2.253,2.363,6.789,7.049,6.789,7.049l0.053-3.143C46.893,24.72,43.688,21.283,40.672,18.07"
			/>
	</g>
	<g>
		<path fill-rule="evenodd" clip-rule="evenodd" fill="#0C72BA" d="M39.541,16.866c-2.132-2.269-3.94-4.173-4.072-4.252
			c-0.262-0.151-0.593-0.223-1.074-0.118c-0.462,0.102-2.204,1.634-2.204,1.634s-8.138,7.496-8.492,7.711
			c-0.195,0.109-0.383,0.186-0.55,0.19c-0.996,0.033-2.422-1.632-3.024-2.188c-2.362-2.205-4.43-4.053-6.744-6.334
			c-0.855-0.845-1.543-1.255-2.494-0.686c-0.153,0.094-8.462,6.632-8.462,6.632v7.564c0,0,10.402-7.575,10.584-7.723
			c0.318-0.251,0.659-0.464,1.017-0.459c0.521,0.001,1.023,0.547,1.511,0.947c2.763,2.279,8.205,6.96,8.356,7.088
			c0.619,0.543,1.226,0.989,2.385,0.655c1.028-0.301,6.629-6.271,8.799-8.527c1.133-1.181,1.616-1.249,2.275-0.921
			c0.076,0.034,0.286,0.228,0.555,0.495C37.998,18.431,39.513,16.894,39.541,16.866"/>
	</g>
	<g>
		<path fill="#636467" d="M46.766,9.374c0.114,0,0.115,0.144,0.022,0.284C46.67,9.907,30.237,32.874,29.542,33.56
			c-0.606,0.593-1.668,1.188-2.812,1.188c-0.608,0-1.243-0.169-1.844-0.603c-3.09-2.223-10.376-8.933-11.48-9.425
			c-0.198-0.085-0.451-0.115-0.697-0.115c-0.167,0-0.337,0.014-0.479,0.034c-0.793,0.116-2.828,1.144-3.169,1.314
			c-0.999,0.513-2.015,1.01-3.034,1.502c-0.734,0.349-2.607,1.186-2.802,1.273c-0.077,0.035-0.201,0.063-0.294,0.063
			c-0.124,0-0.185-0.07,0.054-0.312c0.322-0.313,2.366-1.798,2.366-1.798s4.833-3.579,7.224-5.436
			c0.484-0.383,0.923-0.79,1.577-0.79c0.05,0,0.096,0,0.146,0.007c0.371,0.032,0.755,0.243,1.135,0.533
			c0.629,0.484,9.094,7.865,10.037,8.27c0.306,0.13,0.592,0.178,0.848,0.178c0.764,0,1.277-0.437,1.323-0.459
			c0.056-0.038,16.301-16.862,18.686-19.314C46.539,9.451,46.679,9.374,46.766,9.374 M44.818,11.722
			c-0.063-0.029-0.412,0.327-0.448,0.361c-1.191,1.229-2.721,2.811-4.365,4.519C27.841,29.184,27.828,29.193,27.771,29.226
			c-0.554,0.41-1.098,0.498-1.453,0.498c-0.32,0-0.641-0.065-0.95-0.199c-0.667-0.288-4.396-3.452-8.163-6.665
			c-0.982-0.844-1.768-1.507-1.931-1.634c-0.391-0.299-0.72-0.46-1-0.483c-0.043-0.005-0.085-0.005-0.121-0.005
			c-0.493,0-0.848,0.278-1.26,0.606c-0.053,0.042-0.106,0.084-0.162,0.127c-2.363,1.834-7.173,5.4-7.221,5.438
			c-0.173,0.129-0.439,0.321-0.726,0.535c-0.308,0.226-0.382,0.309-0.329,0.369c0.044,0.045,0.224-0.073,0.387-0.115
			c0.422-0.196,0.819-0.374,1.073-0.495c1.029-0.494,2.047-0.994,3.029-1.496c0.561-0.288,2.446-1.227,3.254-1.343
			c0.115-0.021,0.302-0.038,0.511-0.038c0.322,0,0.595,0.047,0.807,0.142c0.563,0.248,2.321,1.751,5.146,4.175
			c2.281,1.963,4.862,4.186,6.375,5.275c0.516,0.366,1.085,0.555,1.693,0.555c1.098,0,2.099-0.601,2.625-1.117
			c0.566-0.556,10.936-15.042,15.295-21.153C44.666,12.177,44.935,11.803,44.818,11.722"/>
	</g>
	<g>
		<path fill="#636467" d="M61.493,35.023c0,1.04-0.282,1.836-0.847,2.386c-0.565,0.55-1.377,0.825-2.438,0.825h-1.745v-6.301h1.931
			c0.979,0,1.741,0.271,2.284,0.814S61.493,34.05,61.493,35.023z M60.717,35.05c0-0.822-0.206-1.441-0.618-1.857
			c-0.413-0.417-1.025-0.625-1.838-0.625h-1.064v5.033h0.892c0.874,0,1.53-0.215,1.97-0.644
			C60.498,36.527,60.717,35.892,60.717,35.05z"/>
		<path fill="#636467" d="M62.73,32.231c0-0.164,0.04-0.284,0.121-0.36s0.181-0.114,0.302-0.114c0.115,0,0.214,0.039,0.297,0.116
			c0.083,0.078,0.125,0.197,0.125,0.358s-0.042,0.28-0.125,0.359c-0.083,0.079-0.183,0.119-0.297,0.119
			c-0.121,0-0.221-0.04-0.302-0.119S62.73,32.393,62.73,32.231z M63.505,38.234H62.79v-4.724h0.715V38.234z"/>
		<path fill="#636467" d="M68.888,33.511v0.453l-0.875,0.104c0.08,0.101,0.152,0.231,0.215,0.394
			c0.063,0.163,0.095,0.346,0.095,0.55c0,0.463-0.158,0.832-0.474,1.107c-0.316,0.276-0.75,0.414-1.301,0.414
			c-0.141,0-0.273-0.012-0.396-0.034c-0.305,0.16-0.457,0.363-0.457,0.607c0,0.129,0.053,0.225,0.16,0.286
			c0.106,0.063,0.289,0.093,0.547,0.093h0.836c0.511,0,0.904,0.107,1.179,0.323s0.412,0.528,0.412,0.939
			c0,0.523-0.21,0.922-0.629,1.196s-1.031,0.411-1.836,0.411c-0.618,0-1.094-0.115-1.429-0.345
			c-0.334-0.229-0.502-0.555-0.502-0.974c0-0.287,0.092-0.536,0.276-0.746c0.184-0.209,0.442-0.352,0.776-0.427
			c-0.121-0.054-0.222-0.139-0.304-0.254c-0.082-0.115-0.123-0.248-0.123-0.4c0-0.173,0.046-0.323,0.138-0.453
			c0.092-0.129,0.237-0.254,0.436-0.375c-0.244-0.101-0.443-0.271-0.597-0.513c-0.153-0.241-0.23-0.517-0.23-0.827
			c0-0.518,0.155-0.916,0.465-1.196c0.311-0.279,0.75-0.42,1.319-0.42c0.247,0,0.47,0.029,0.668,0.086H68.888z M65.122,39.027
			c0,0.256,0.108,0.449,0.323,0.582c0.216,0.132,0.524,0.198,0.927,0.198c0.601,0,1.045-0.09,1.333-0.27
			c0.289-0.18,0.433-0.423,0.433-0.73c0-0.256-0.079-0.434-0.237-0.532c-0.158-0.1-0.456-0.148-0.892-0.148h-0.857
			c-0.325,0-0.578,0.077-0.759,0.232C65.212,38.515,65.122,38.737,65.122,39.027z M65.51,35.023c0,0.331,0.093,0.581,0.28,0.75
			c0.187,0.17,0.447,0.255,0.78,0.255c0.698,0,1.047-0.34,1.047-1.018c0-0.71-0.354-1.064-1.061-1.064
			c-0.336,0-0.595,0.091-0.775,0.271C65.6,34.398,65.51,34.668,65.51,35.023z"/>
		<path fill="#636467" d="M69.798,32.231c0-0.164,0.04-0.284,0.121-0.36s0.181-0.114,0.302-0.114c0.115,0,0.214,0.039,0.297,0.116
			c0.083,0.078,0.125,0.197,0.125,0.358s-0.042,0.28-0.125,0.359c-0.083,0.079-0.183,0.119-0.297,0.119
			c-0.121,0-0.221-0.04-0.302-0.119S69.798,32.393,69.798,32.231z M70.573,38.234h-0.715v-4.724h0.715V38.234z"/>
		<path fill="#636467" d="M73.616,37.73c0.126,0,0.249-0.01,0.366-0.028s0.211-0.038,0.28-0.059v0.548
			c-0.078,0.037-0.192,0.068-0.343,0.093s-0.287,0.036-0.407,0.036c-0.914,0-1.371-0.48-1.371-1.443v-2.81h-0.676v-0.345
			l0.676-0.298l0.302-1.008h0.414v1.094h1.371v0.557h-1.371v2.779c0,0.284,0.068,0.503,0.203,0.655
			C73.195,37.654,73.38,37.73,73.616,37.73z"/>
		<path fill="#636467" d="M78.11,38.234l-0.142-0.672h-0.035c-0.235,0.296-0.47,0.496-0.705,0.601
			c-0.234,0.105-0.526,0.157-0.877,0.157c-0.468,0-0.835-0.12-1.101-0.361c-0.266-0.242-0.398-0.585-0.398-1.03
			c0-0.954,0.763-1.454,2.288-1.5l0.802-0.025V35.11c0-0.371-0.08-0.645-0.239-0.821s-0.415-0.265-0.765-0.265
			c-0.394,0-0.839,0.12-1.336,0.361l-0.22-0.547c0.233-0.127,0.488-0.226,0.765-0.298c0.277-0.071,0.555-0.107,0.834-0.107
			c0.563,0,0.98,0.125,1.252,0.375s0.407,0.65,0.407,1.202v3.224H78.11z M76.494,37.73c0.445,0,0.795-0.122,1.049-0.366
			c0.254-0.244,0.382-0.587,0.382-1.026v-0.427l-0.716,0.03c-0.569,0.021-0.979,0.108-1.23,0.266
			c-0.251,0.156-0.377,0.399-0.377,0.73c0,0.258,0.079,0.455,0.235,0.59C75.994,37.663,76.213,37.73,76.494,37.73z"/>
		<path fill="#636467" d="M80.83,38.234h-0.715v-6.706h0.715V38.234z"/>
		<path fill="#636467" d="M84.747,31.934h1.78c0.836,0,1.441,0.125,1.814,0.375s0.56,0.646,0.56,1.186
			c0,0.373-0.104,0.682-0.313,0.924c-0.208,0.243-0.512,0.4-0.911,0.473v0.043c0.957,0.163,1.435,0.666,1.435,1.508
			c0,0.563-0.19,1.003-0.571,1.319c-0.381,0.315-0.913,0.474-1.597,0.474h-2.198V31.934z M85.479,34.632h1.207
			c0.517,0,0.889-0.081,1.116-0.244c0.227-0.162,0.34-0.436,0.34-0.82c0-0.354-0.126-0.608-0.379-0.766
			c-0.253-0.156-0.655-0.234-1.207-0.234h-1.078V34.632z M85.479,35.252v2.357h1.314c0.509,0,0.892-0.099,1.148-0.295
			c0.257-0.197,0.386-0.505,0.386-0.925c0-0.391-0.131-0.678-0.394-0.861c-0.263-0.185-0.663-0.276-1.2-0.276H85.479z"/>
		<path fill="#636467" d="M91.03,33.511v3.064c0,0.385,0.088,0.672,0.263,0.862c0.175,0.189,0.449,0.284,0.823,0.284
			c0.494,0,0.855-0.135,1.084-0.405c0.229-0.27,0.343-0.711,0.343-1.323v-2.482h0.715v4.724h-0.59l-0.104-0.634h-0.039
			c-0.146,0.233-0.35,0.411-0.609,0.535c-0.26,0.123-0.557,0.185-0.89,0.185c-0.575,0-1.005-0.136-1.291-0.409
			c-0.286-0.272-0.429-0.71-0.429-1.311v-3.09H91.03z"/>
		<path fill="#636467" d="M98.822,36.946c0,0.439-0.164,0.778-0.491,1.017s-0.787,0.357-1.379,0.357
			c-0.626,0-1.115-0.099-1.465-0.297v-0.664c0.227,0.115,0.47,0.206,0.73,0.271c0.26,0.066,0.511,0.1,0.752,0.1
			c0.374,0,0.661-0.06,0.862-0.179s0.302-0.302,0.302-0.546c0-0.184-0.08-0.341-0.239-0.472c-0.159-0.131-0.47-0.285-0.933-0.463
			c-0.439-0.164-0.752-0.307-0.937-0.429c-0.186-0.122-0.323-0.261-0.414-0.416c-0.091-0.155-0.136-0.341-0.136-0.557
			c0-0.385,0.156-0.688,0.47-0.911c0.313-0.223,0.743-0.334,1.289-0.334c0.508,0,1.005,0.104,1.491,0.311l-0.254,0.582
			c-0.474-0.195-0.904-0.293-1.289-0.293c-0.339,0-0.595,0.053-0.767,0.159s-0.259,0.253-0.259,0.439
			c0,0.126,0.032,0.234,0.097,0.323c0.064,0.089,0.168,0.174,0.312,0.254c0.144,0.081,0.42,0.197,0.828,0.35
			c0.56,0.204,0.939,0.409,1.136,0.616S98.822,36.633,98.822,36.946z"/>
		<path fill="#636467" d="M99.925,32.231c0-0.164,0.04-0.284,0.121-0.36s0.181-0.114,0.302-0.114c0.115,0,0.214,0.039,0.297,0.116
			c0.083,0.078,0.125,0.197,0.125,0.358s-0.042,0.28-0.125,0.359c-0.083,0.079-0.183,0.119-0.297,0.119
			c-0.121,0-0.221-0.04-0.302-0.119S99.925,32.393,99.925,32.231z M100.701,38.234h-0.715v-4.724h0.715V38.234z"/>
		<path fill="#636467" d="M105.45,38.234v-3.056c0-0.385-0.088-0.672-0.263-0.861c-0.175-0.19-0.45-0.285-0.823-0.285
			c-0.494,0-0.856,0.134-1.086,0.401c-0.23,0.267-0.345,0.708-0.345,1.323v2.478h-0.715v-4.724h0.582l0.116,0.646h0.035
			c0.146-0.232,0.352-0.413,0.616-0.54c0.264-0.128,0.559-0.192,0.883-0.192c0.569,0,0.997,0.138,1.284,0.412
			c0.288,0.274,0.431,0.713,0.431,1.316v3.081H105.45z"/>
		<path fill="#636467" d="M109.63,38.32c-0.698,0-1.249-0.212-1.653-0.638c-0.404-0.425-0.605-1.016-0.605-1.771
			c0-0.761,0.188-1.365,0.563-1.813s0.878-0.673,1.51-0.673c0.592,0,1.06,0.194,1.405,0.584c0.345,0.39,0.518,0.903,0.518,1.541
			v0.452h-3.254c0.014,0.555,0.154,0.976,0.42,1.263c0.266,0.287,0.64,0.431,1.123,0.431c0.508,0,1.011-0.105,1.508-0.318v0.638
			c-0.253,0.109-0.492,0.188-0.718,0.234C110.221,38.297,109.949,38.32,109.63,38.32z M109.437,34.024
			c-0.379,0-0.682,0.123-0.907,0.37s-0.358,0.589-0.399,1.025h2.47c0-0.45-0.101-0.796-0.302-1.036S109.81,34.024,109.437,34.024z"
			/>
		<path fill="#636467" d="M115.633,36.946c0,0.439-0.164,0.778-0.491,1.017s-0.787,0.357-1.379,0.357
			c-0.626,0-1.115-0.099-1.465-0.297v-0.664c0.227,0.115,0.47,0.206,0.73,0.271c0.26,0.066,0.511,0.1,0.752,0.1
			c0.374,0,0.661-0.06,0.862-0.179s0.302-0.302,0.302-0.546c0-0.184-0.08-0.341-0.239-0.472c-0.159-0.131-0.47-0.285-0.933-0.463
			c-0.439-0.164-0.752-0.307-0.937-0.429c-0.186-0.122-0.323-0.261-0.414-0.416c-0.091-0.155-0.136-0.341-0.136-0.557
			c0-0.385,0.156-0.688,0.47-0.911c0.313-0.223,0.743-0.334,1.289-0.334c0.508,0,1.005,0.104,1.491,0.311l-0.254,0.582
			c-0.474-0.195-0.904-0.293-1.289-0.293c-0.339,0-0.595,0.053-0.767,0.159s-0.259,0.253-0.259,0.439
			c0,0.126,0.032,0.234,0.097,0.323c0.064,0.089,0.168,0.174,0.312,0.254c0.144,0.081,0.42,0.197,0.828,0.35
			c0.56,0.204,0.939,0.409,1.136,0.616S115.633,36.633,115.633,36.946z"/>
		<path fill="#636467" d="M119.844,36.946c0,0.439-0.164,0.778-0.491,1.017s-0.787,0.357-1.379,0.357
			c-0.626,0-1.115-0.099-1.465-0.297v-0.664c0.227,0.115,0.47,0.206,0.73,0.271c0.26,0.066,0.511,0.1,0.752,0.1
			c0.374,0,0.661-0.06,0.862-0.179s0.302-0.302,0.302-0.546c0-0.184-0.08-0.341-0.239-0.472c-0.159-0.131-0.47-0.285-0.933-0.463
			c-0.439-0.164-0.752-0.307-0.937-0.429c-0.186-0.122-0.323-0.261-0.414-0.416c-0.091-0.155-0.136-0.341-0.136-0.557
			c0-0.385,0.156-0.688,0.47-0.911c0.313-0.223,0.743-0.334,1.289-0.334c0.508,0,1.005,0.104,1.491,0.311l-0.254,0.582
			c-0.474-0.195-0.904-0.293-1.289-0.293c-0.339,0-0.595,0.053-0.767,0.159s-0.259,0.253-0.259,0.439
			c0,0.126,0.032,0.234,0.097,0.323c0.064,0.089,0.168,0.174,0.312,0.254c0.144,0.081,0.42,0.197,0.828,0.35
			c0.56,0.204,0.939,0.409,1.136,0.616S119.844,36.633,119.844,36.946z"/>
		<path fill="#636467" d="M125.347,38.234h-0.733v-5.649h-1.995v-0.651h4.723v0.651h-1.995V38.234z"/>
		<path fill="#636467" d="M130.337,33.425c0.21,0,0.398,0.018,0.565,0.052l-0.099,0.664c-0.196-0.043-0.368-0.064-0.518-0.064
			c-0.382,0-0.708,0.154-0.98,0.465c-0.272,0.311-0.408,0.697-0.408,1.159v2.534h-0.715v-4.724h0.591l0.082,0.875h0.035
			c0.175-0.308,0.386-0.544,0.633-0.711C129.77,33.509,130.042,33.425,130.337,33.425z"/>
		<path fill="#636467" d="M134.69,38.234l-0.142-0.672h-0.035c-0.235,0.296-0.47,0.496-0.705,0.601
			c-0.234,0.105-0.526,0.157-0.877,0.157c-0.468,0-0.835-0.12-1.101-0.361c-0.266-0.242-0.398-0.585-0.398-1.03
			c0-0.954,0.763-1.454,2.288-1.5l0.802-0.025V35.11c0-0.371-0.08-0.645-0.239-0.821s-0.415-0.265-0.765-0.265
			c-0.394,0-0.839,0.12-1.336,0.361l-0.22-0.547c0.233-0.127,0.488-0.226,0.765-0.298c0.277-0.071,0.555-0.107,0.834-0.107
			c0.563,0,0.98,0.125,1.252,0.375s0.407,0.65,0.407,1.202v3.224H134.69z M133.074,37.73c0.445,0,0.795-0.122,1.049-0.366
			c0.254-0.244,0.382-0.587,0.382-1.026v-0.427l-0.716,0.03c-0.569,0.021-0.979,0.108-1.23,0.266
			c-0.251,0.156-0.377,0.399-0.377,0.73c0,0.258,0.079,0.455,0.235,0.59C132.573,37.663,132.792,37.73,133.074,37.73z"/>
		<path fill="#636467" d="M139.926,38.234v-3.056c0-0.385-0.088-0.672-0.263-0.861c-0.175-0.19-0.45-0.285-0.823-0.285
			c-0.494,0-0.856,0.134-1.086,0.401c-0.23,0.267-0.345,0.708-0.345,1.323v2.478h-0.715v-4.724h0.582l0.116,0.646h0.035
			c0.146-0.232,0.352-0.413,0.616-0.54c0.264-0.128,0.559-0.192,0.883-0.192c0.569,0,0.997,0.138,1.284,0.412
			c0.288,0.274,0.431,0.713,0.431,1.316v3.081H139.926z"/>
		<path fill="#636467" d="M145.158,36.946c0,0.439-0.164,0.778-0.491,1.017s-0.787,0.357-1.379,0.357
			c-0.626,0-1.115-0.099-1.465-0.297v-0.664c0.227,0.115,0.47,0.206,0.73,0.271c0.26,0.066,0.511,0.1,0.752,0.1
			c0.374,0,0.661-0.06,0.862-0.179s0.302-0.302,0.302-0.546c0-0.184-0.08-0.341-0.239-0.472c-0.159-0.131-0.47-0.285-0.933-0.463
			c-0.439-0.164-0.752-0.307-0.937-0.429c-0.186-0.122-0.323-0.261-0.414-0.416c-0.091-0.155-0.136-0.341-0.136-0.557
			c0-0.385,0.156-0.688,0.47-0.911c0.313-0.223,0.743-0.334,1.289-0.334c0.508,0,1.005,0.104,1.491,0.311l-0.254,0.582
			c-0.474-0.195-0.904-0.293-1.289-0.293c-0.339,0-0.595,0.053-0.767,0.159s-0.259,0.253-0.259,0.439
			c0,0.126,0.032,0.234,0.097,0.323c0.064,0.089,0.168,0.174,0.312,0.254c0.144,0.081,0.42,0.197,0.828,0.35
			c0.56,0.204,0.939,0.409,1.136,0.616S145.158,36.633,145.158,36.946z"/>
		<path fill="#636467" d="M148.45,34.067h-1.202v4.167h-0.715v-4.167h-0.845v-0.323l0.845-0.259v-0.263
			c0-1.161,0.507-1.741,1.521-1.741c0.25,0,0.543,0.05,0.879,0.15l-0.186,0.573c-0.276-0.089-0.511-0.134-0.707-0.134
			c-0.27,0-0.47,0.09-0.599,0.27s-0.194,0.468-0.194,0.864v0.306h1.202V34.067z"/>
		<path fill="#636467" d="M153.389,35.868c0,0.771-0.194,1.371-0.582,1.804s-0.924,0.648-1.607,0.648
			c-0.422,0-0.797-0.099-1.125-0.297c-0.328-0.198-0.581-0.482-0.759-0.854s-0.267-0.805-0.267-1.302
			c0-0.77,0.192-1.369,0.578-1.799c0.385-0.43,0.919-0.645,1.603-0.645c0.661,0,1.186,0.22,1.575,0.659
			C153.194,34.523,153.389,35.118,153.389,35.868z M149.791,35.868c0,0.604,0.121,1.063,0.362,1.379
			c0.242,0.316,0.596,0.475,1.064,0.475s0.824-0.157,1.067-0.472c0.243-0.315,0.364-0.775,0.364-1.382
			c0-0.601-0.122-1.057-0.364-1.368s-0.601-0.468-1.075-0.468c-0.468,0-0.822,0.154-1.06,0.462
			C149.91,34.801,149.791,35.26,149.791,35.868z"/>
		<path fill="#636467" d="M156.798,33.425c0.21,0,0.398,0.018,0.564,0.052l-0.099,0.664c-0.195-0.043-0.368-0.064-0.518-0.064
			c-0.382,0-0.708,0.154-0.98,0.465c-0.272,0.311-0.408,0.697-0.408,1.159v2.534h-0.715v-4.724h0.591l0.082,0.875h0.035
			c0.175-0.308,0.386-0.544,0.633-0.711C156.23,33.509,156.502,33.425,156.798,33.425z"/>
		<path fill="#636467" d="M164.267,38.234v-3.072c0-0.377-0.081-0.659-0.242-0.848c-0.16-0.188-0.41-0.282-0.749-0.282
			c-0.445,0-0.774,0.128-0.987,0.384s-0.319,0.649-0.319,1.181v2.638h-0.715v-3.072c0-0.377-0.08-0.659-0.241-0.848
			c-0.161-0.188-0.412-0.282-0.754-0.282c-0.448,0-0.777,0.135-0.985,0.403s-0.313,0.709-0.313,1.321v2.478h-0.715v-4.724h0.581
			l0.117,0.646h0.034c0.135-0.229,0.325-0.409,0.571-0.538c0.245-0.13,0.521-0.194,0.825-0.194c0.738,0,1.221,0.268,1.447,0.802
			h0.035c0.141-0.247,0.345-0.442,0.611-0.586c0.268-0.144,0.572-0.216,0.914-0.216c0.534,0,0.935,0.138,1.2,0.412
			s0.398,0.713,0.398,1.316v3.081H164.267z"/>
		<path fill="#636467" d="M169.36,38.234l-0.143-0.672h-0.034c-0.235,0.296-0.471,0.496-0.704,0.601
			c-0.234,0.105-0.527,0.157-0.877,0.157c-0.469,0-0.836-0.12-1.102-0.361c-0.266-0.242-0.398-0.585-0.398-1.03
			c0-0.954,0.763-1.454,2.288-1.5l0.802-0.025V35.11c0-0.371-0.08-0.645-0.239-0.821s-0.414-0.265-0.765-0.265
			c-0.394,0-0.839,0.12-1.336,0.361l-0.22-0.547c0.232-0.127,0.487-0.226,0.765-0.298c0.277-0.071,0.555-0.107,0.834-0.107
			c0.563,0,0.98,0.125,1.252,0.375s0.407,0.65,0.407,1.202v3.224H169.36z M167.744,37.73c0.445,0,0.795-0.122,1.05-0.366
			c0.254-0.244,0.381-0.587,0.381-1.026v-0.427l-0.715,0.03c-0.569,0.021-0.979,0.108-1.23,0.266
			c-0.252,0.156-0.377,0.399-0.377,0.73c0,0.258,0.078,0.455,0.234,0.59C167.243,37.663,167.463,37.73,167.744,37.73z"/>
		<path fill="#636467" d="M172.89,37.73c0.126,0,0.248-0.01,0.366-0.028s0.211-0.038,0.28-0.059v0.548
			c-0.078,0.037-0.192,0.068-0.343,0.093s-0.286,0.036-0.407,0.036c-0.914,0-1.37-0.48-1.37-1.443v-2.81h-0.677v-0.345l0.677-0.298
			l0.302-1.008h0.413v1.094h1.371v0.557h-1.371v2.779c0,0.284,0.067,0.503,0.203,0.655C172.469,37.654,172.654,37.73,172.89,37.73z"
			/>
		<path fill="#636467" d="M174.42,32.231c0-0.164,0.04-0.284,0.12-0.36c0.081-0.076,0.182-0.114,0.302-0.114
			c0.115,0,0.214,0.039,0.298,0.116c0.083,0.078,0.125,0.197,0.125,0.358s-0.042,0.28-0.125,0.359
			c-0.084,0.079-0.183,0.119-0.298,0.119c-0.12,0-0.221-0.04-0.302-0.119C174.46,32.512,174.42,32.393,174.42,32.231z
			 M175.195,38.234h-0.715v-4.724h0.715V38.234z"/>
		<path fill="#636467" d="M180.789,35.868c0,0.771-0.193,1.371-0.581,1.804c-0.389,0.433-0.924,0.648-1.607,0.648
			c-0.423,0-0.798-0.099-1.125-0.297c-0.328-0.198-0.581-0.482-0.759-0.854s-0.268-0.805-0.268-1.302
			c0-0.77,0.193-1.369,0.578-1.799s0.919-0.645,1.603-0.645c0.661,0,1.187,0.22,1.575,0.659
			C180.595,34.523,180.789,35.118,180.789,35.868z M177.191,35.868c0,0.604,0.12,1.063,0.361,1.379
			c0.241,0.316,0.597,0.475,1.064,0.475c0.469,0,0.824-0.157,1.066-0.472c0.243-0.315,0.364-0.775,0.364-1.382
			c0-0.601-0.121-1.057-0.364-1.368c-0.242-0.312-0.601-0.468-1.075-0.468c-0.468,0-0.821,0.154-1.06,0.462
			C177.311,34.801,177.191,35.26,177.191,35.868z"/>
		<path fill="#636467" d="M185.274,38.234v-3.056c0-0.385-0.087-0.672-0.263-0.861c-0.175-0.19-0.449-0.285-0.823-0.285
			c-0.494,0-0.855,0.134-1.086,0.401c-0.229,0.267-0.345,0.708-0.345,1.323v2.478h-0.715v-4.724h0.581l0.117,0.646h0.034
			c0.146-0.232,0.352-0.413,0.616-0.54c0.265-0.128,0.559-0.192,0.884-0.192c0.568,0,0.996,0.138,1.284,0.412
			c0.287,0.274,0.431,0.713,0.431,1.316v3.081H185.274z"/>
		<path fill="#636467" d="M192.559,32.498c-0.693,0-1.239,0.23-1.641,0.692c-0.4,0.461-0.601,1.092-0.601,1.894
			c0,0.825,0.193,1.462,0.579,1.911c0.387,0.45,0.938,0.675,1.653,0.675c0.439,0,0.94-0.079,1.504-0.237v0.643
			c-0.437,0.163-0.976,0.245-1.616,0.245c-0.928,0-1.645-0.281-2.148-0.845c-0.504-0.563-0.756-1.363-0.756-2.4
			c0-0.649,0.121-1.218,0.364-1.706c0.242-0.488,0.593-0.865,1.051-1.129c0.458-0.265,0.998-0.396,1.618-0.396
			c0.661,0,1.238,0.12,1.732,0.361l-0.31,0.63C193.512,32.61,193.035,32.498,192.559,32.498z"/>
		<path fill="#636467" d="M197.316,38.32c-0.698,0-1.249-0.212-1.652-0.638c-0.404-0.425-0.606-1.016-0.606-1.771
			c0-0.761,0.188-1.365,0.563-1.813s0.879-0.673,1.511-0.673c0.592,0,1.061,0.194,1.405,0.584s0.517,0.903,0.517,1.541v0.452H195.8
			c0.014,0.555,0.154,0.976,0.42,1.263s0.64,0.431,1.122,0.431c0.509,0,1.012-0.105,1.509-0.318v0.638
			c-0.253,0.109-0.492,0.188-0.718,0.234C197.907,38.297,197.635,38.32,197.316,38.32z M197.122,34.024
			c-0.379,0-0.682,0.123-0.907,0.37s-0.358,0.589-0.398,1.025h2.47c0-0.45-0.101-0.796-0.302-1.036S197.496,34.024,197.122,34.024z"
			/>
		<path fill="#636467" d="M203.504,38.234v-3.056c0-0.385-0.087-0.672-0.263-0.861c-0.175-0.19-0.449-0.285-0.823-0.285
			c-0.494,0-0.855,0.134-1.086,0.401c-0.229,0.267-0.345,0.708-0.345,1.323v2.478h-0.715v-4.724h0.581l0.117,0.646h0.034
			c0.146-0.232,0.352-0.413,0.616-0.54c0.265-0.128,0.559-0.192,0.884-0.192c0.568,0,0.996,0.138,1.284,0.412
			c0.287,0.274,0.431,0.713,0.431,1.316v3.081H203.504z"/>
		<path fill="#636467" d="M207.215,37.73c0.126,0,0.248-0.01,0.366-0.028s0.211-0.038,0.28-0.059v0.548
			c-0.078,0.037-0.192,0.068-0.343,0.093s-0.286,0.036-0.407,0.036c-0.914,0-1.37-0.48-1.37-1.443v-2.81h-0.677v-0.345l0.677-0.298
			l0.302-1.008h0.413v1.094h1.371v0.557h-1.371v2.779c0,0.284,0.067,0.503,0.203,0.655C206.794,37.654,206.979,37.73,207.215,37.73z
			"/>
		<path fill="#636467" d="M210.801,38.32c-0.698,0-1.249-0.212-1.652-0.638c-0.404-0.425-0.606-1.016-0.606-1.771
			c0-0.761,0.188-1.365,0.563-1.813s0.879-0.673,1.511-0.673c0.592,0,1.061,0.194,1.405,0.584s0.517,0.903,0.517,1.541v0.452h-3.253
			c0.014,0.555,0.154,0.976,0.42,1.263s0.64,0.431,1.122,0.431c0.509,0,1.012-0.105,1.509-0.318v0.638
			c-0.253,0.109-0.492,0.188-0.718,0.234C211.392,38.297,211.119,38.32,210.801,38.32z M210.606,34.024
			c-0.379,0-0.682,0.123-0.907,0.37s-0.358,0.589-0.398,1.025h2.47c0-0.45-0.101-0.796-0.302-1.036S210.98,34.024,210.606,34.024z"
			/>
		<path fill="#636467" d="M215.911,33.425c0.21,0,0.398,0.018,0.564,0.052l-0.099,0.664c-0.195-0.043-0.368-0.064-0.518-0.064
			c-0.382,0-0.709,0.154-0.98,0.465s-0.407,0.697-0.407,1.159v2.534h-0.715v-4.724h0.59l0.082,0.875h0.034
			c0.176-0.308,0.387-0.544,0.634-0.711C215.344,33.509,215.615,33.425,215.911,33.425z"/>
	</g>
</g>
</svg>
