<svg width="153" height="26" viewBox="0 0 153 26" fill="none" xmlns="http://www.w3.org/2000/svg">
<path d="M0.0227273 25V1.72727H9.20455C10.9697 1.72727 12.4735 2.06439 13.7159 2.73864C14.9583 3.4053 15.9053 4.33333 16.5568 5.52273C17.2159 6.70454 17.5455 8.06818 17.5455 9.61364C17.5455 11.1591 17.2121 12.5227 16.5455 13.7045C15.8788 14.8864 14.9129 15.8068 13.6477 16.4659C12.3902 17.125 10.8674 17.4545 9.07955 17.4545H3.22727V13.5114H8.28409C9.23106 13.5114 10.0114 13.3485 10.625 13.0227C11.2462 12.6894 11.7083 12.2311 12.0114 11.6477C12.322 11.0568 12.4773 10.3788 12.4773 9.61364C12.4773 8.84091 12.322 8.16667 12.0114 7.59091C11.7083 7.00757 11.2462 6.55682 10.625 6.23864C10.0038 5.91288 9.21591 5.75 8.26136 5.75H4.94318V25H0.0227273ZM25.1591 25.3295C24.0455 25.3295 23.053 25.1364 22.1818 24.75C21.3106 24.3561 20.6212 23.7765 20.1136 23.0114C19.6136 22.2386 19.3636 21.2765 19.3636 20.125C19.3636 19.1553 19.5417 18.3409 19.8977 17.6818C20.2538 17.0227 20.7386 16.4924 21.3523 16.0909C21.9659 15.6894 22.6629 15.3864 23.4432 15.1818C24.2311 14.9773 25.0568 14.8333 25.9205 14.75C26.9356 14.6439 27.7538 14.5455 28.375 14.4545C28.9962 14.3561 29.447 14.2121 29.7273 14.0227C30.0076 13.8333 30.1477 13.553 30.1477 13.1818V13.1136C30.1477 12.3939 29.9205 11.8371 29.4659 11.4432C29.0189 11.0492 28.3826 10.8523 27.5568 10.8523C26.6856 10.8523 25.9924 11.0455 25.4773 11.4318C24.9621 11.8106 24.6212 12.2879 24.4545 12.8636L19.9773 12.5C20.2045 11.4394 20.6515 10.5227 21.3182 9.75C21.9848 8.9697 22.8447 8.37121 23.8977 7.95454C24.9583 7.5303 26.1856 7.31818 27.5795 7.31818C28.5492 7.31818 29.4773 7.43182 30.3636 7.65909C31.2576 7.88636 32.0492 8.23864 32.7386 8.71591C33.4356 9.19318 33.9848 9.80682 34.3864 10.5568C34.7879 11.2992 34.9886 12.1894 34.9886 13.2273V25H30.3977V22.5795H30.2614C29.9811 23.125 29.6061 23.6061 29.1364 24.0227C28.6667 24.4318 28.1023 24.7538 27.4432 24.9886C26.7841 25.2159 26.0227 25.3295 25.1591 25.3295ZM26.5455 21.9886C27.2576 21.9886 27.8864 21.8485 28.4318 21.5682C28.9773 21.2803 29.4053 20.8939 29.7159 20.4091C30.0265 19.9242 30.1818 19.375 30.1818 18.7614V16.9091C30.0303 17.0076 29.822 17.0985 29.5568 17.1818C29.2992 17.2576 29.0076 17.3295 28.6818 17.3977C28.3561 17.4583 28.0303 17.5152 27.7045 17.5682C27.3788 17.6136 27.0833 17.6553 26.8182 17.6932C26.25 17.7765 25.7538 17.9091 25.3295 18.0909C24.9053 18.2727 24.5758 18.5189 24.3409 18.8295C24.1061 19.1326 23.9886 19.5114 23.9886 19.9659C23.9886 20.625 24.2273 21.1288 24.7045 21.4773C25.1894 21.8182 25.803 21.9886 26.5455 21.9886ZM38.7443 25V7.54545H43.4375V10.5909H43.6193C43.9375 9.50758 44.4716 8.68939 45.2216 8.13636C45.9716 7.57576 46.8352 7.29545 47.8125 7.29545C48.0549 7.29545 48.3163 7.31061 48.5966 7.34091C48.8769 7.37121 49.1231 7.41288 49.3352 7.46591V11.7614C49.108 11.6932 48.7936 11.6326 48.392 11.5795C47.9905 11.5265 47.6231 11.5 47.2898 11.5C46.5777 11.5 45.9413 11.6553 45.3807 11.9659C44.8277 12.2689 44.3883 12.6932 44.0625 13.2386C43.7443 13.7841 43.5852 14.4129 43.5852 15.125V25H38.7443ZM56.3153 25.3295C55.2017 25.3295 54.2093 25.1364 53.3381 24.75C52.4669 24.3561 51.7775 23.7765 51.2699 23.0114C50.7699 22.2386 50.5199 21.2765 50.5199 20.125C50.5199 19.1553 50.6979 18.3409 51.054 17.6818C51.41 17.0227 51.8949 16.4924 52.5085 16.0909C53.1222 15.6894 53.8191 15.3864 54.5994 15.1818C55.3873 14.9773 56.2131 14.8333 57.0767 14.75C58.0919 14.6439 58.91 14.5455 59.5312 14.4545C60.1525 14.3561 60.6032 14.2121 60.8835 14.0227C61.1638 13.8333 61.304 13.553 61.304 13.1818V13.1136C61.304 12.3939 61.0767 11.8371 60.6222 11.4432C60.1752 11.0492 59.5388 10.8523 58.7131 10.8523C57.8419 10.8523 57.1487 11.0455 56.6335 11.4318C56.1184 11.8106 55.7775 12.2879 55.6108 12.8636L51.1335 12.5C51.3608 11.4394 51.8078 10.5227 52.4744 9.75C53.1411 8.9697 54.0009 8.37121 55.054 7.95454C56.1146 7.5303 57.3419 7.31818 58.7358 7.31818C59.7055 7.31818 60.6335 7.43182 61.5199 7.65909C62.4138 7.88636 63.2055 8.23864 63.8949 8.71591C64.5919 9.19318 65.1411 9.80682 65.5426 10.5568C65.9441 11.2992 66.1449 12.1894 66.1449 13.2273V25H61.554V22.5795H61.4176C61.1373 23.125 60.7623 23.6061 60.2926 24.0227C59.8229 24.4318 59.2585 24.7538 58.5994 24.9886C57.9403 25.2159 57.179 25.3295 56.3153 25.3295ZM57.7017 21.9886C58.4138 21.9886 59.0426 21.8485 59.5881 21.5682C60.1335 21.2803 60.5616 20.8939 60.8722 20.4091C61.1828 19.9242 61.3381 19.375 61.3381 18.7614V16.9091C61.1866 17.0076 60.9782 17.0985 60.7131 17.1818C60.4555 17.2576 60.1638 17.3295 59.8381 17.3977C59.5123 17.4583 59.1866 17.5152 58.8608 17.5682C58.535 17.6136 58.2396 17.6553 57.9744 17.6932C57.4063 17.7765 56.91 17.9091 56.4858 18.0909C56.0616 18.2727 55.732 18.5189 55.4972 18.8295C55.2623 19.1326 55.1449 19.5114 55.1449 19.9659C55.1449 20.625 55.3835 21.1288 55.8608 21.4773C56.3456 21.8182 56.9593 21.9886 57.7017 21.9886ZM69.9915 25V1.72727H74.8324V10.4773H74.9801C75.1922 10.0076 75.4991 9.5303 75.9006 9.04545C76.3097 8.55303 76.84 8.14394 77.4915 7.81818C78.1506 7.48485 78.9688 7.31818 79.946 7.31818C81.2188 7.31818 82.393 7.65152 83.4688 8.31818C84.5445 8.97727 85.4044 9.97348 86.0483 11.3068C86.6922 12.6326 87.0142 14.2955 87.0142 16.2955C87.0142 18.2424 86.6998 19.8864 86.071 21.2273C85.4498 22.5606 84.6013 23.572 83.5256 24.2614C82.4574 24.9432 81.2604 25.2841 79.9347 25.2841C78.9953 25.2841 78.196 25.1288 77.5369 24.8182C76.8854 24.5076 76.3513 24.1174 75.9347 23.6477C75.518 23.1705 75.1998 22.6894 74.9801 22.2045H74.7642V25H69.9915ZM74.7301 16.2727C74.7301 17.3106 74.8741 18.2159 75.1619 18.9886C75.4498 19.7614 75.8665 20.3636 76.4119 20.7955C76.9574 21.2197 77.6203 21.4318 78.4006 21.4318C79.1884 21.4318 79.8551 21.2159 80.4006 20.7841C80.946 20.3447 81.3589 19.7386 81.6392 18.9659C81.9271 18.1856 82.071 17.2879 82.071 16.2727C82.071 15.2652 81.9309 14.3788 81.6506 13.6136C81.3703 12.8485 80.9574 12.25 80.4119 11.8182C79.8665 11.3864 79.196 11.1705 78.4006 11.1705C77.6127 11.1705 76.946 11.3788 76.4006 11.7955C75.8627 12.2121 75.4498 12.803 75.1619 13.5682C74.8741 14.3333 74.7301 15.2348 74.7301 16.2727ZM98.1989 25.3409C96.4034 25.3409 94.858 24.9773 93.5625 24.25C92.2746 23.5152 91.2822 22.4773 90.5852 21.1364C89.8883 19.7879 89.5398 18.1932 89.5398 16.3523C89.5398 14.5568 89.8883 12.9811 90.5852 11.625C91.2822 10.2689 92.2633 9.21212 93.5284 8.45454C94.8011 7.69697 96.2936 7.31818 98.0057 7.31818C99.1572 7.31818 100.229 7.50379 101.222 7.875C102.222 8.23864 103.093 8.78788 103.835 9.52273C104.585 10.2576 105.169 11.1818 105.585 12.2955C106.002 13.4015 106.21 14.697 106.21 16.1818V17.5114H91.4716V14.5114H101.653C101.653 13.8144 101.502 13.197 101.199 12.6591C100.896 12.1212 100.475 11.7008 99.9375 11.3977C99.4072 11.0871 98.7898 10.9318 98.0852 10.9318C97.3504 10.9318 96.6989 11.1023 96.1307 11.4432C95.5701 11.7765 95.1307 12.2273 94.8125 12.7955C94.4943 13.3561 94.3314 13.9811 94.3239 14.6705V17.5227C94.3239 18.3864 94.483 19.1326 94.8011 19.7614C95.1269 20.3902 95.5852 20.875 96.1761 21.2159C96.767 21.5568 97.4678 21.7273 98.2784 21.7273C98.8163 21.7273 99.3087 21.6515 99.7557 21.5C100.203 21.3485 100.585 21.1212 100.903 20.8182C101.222 20.5152 101.464 20.1439 101.631 19.7045L106.108 20C105.881 21.0758 105.415 22.0152 104.71 22.8182C104.013 23.6136 103.112 24.2348 102.006 24.6818C100.907 25.1212 99.6383 25.3409 98.1989 25.3409ZM114.21 1.72727V25H109.369V1.72727H114.21ZM120.918 25.2955C120.168 25.2955 119.524 25.0303 118.986 24.5C118.455 23.9621 118.19 23.3182 118.19 22.5682C118.19 21.8258 118.455 21.1894 118.986 20.6591C119.524 20.1288 120.168 19.8636 120.918 19.8636C121.645 19.8636 122.281 20.1288 122.827 20.6591C123.372 21.1894 123.645 21.8258 123.645 22.5682C123.645 23.0682 123.516 23.5265 123.259 23.9432C123.009 24.3523 122.679 24.6818 122.27 24.9318C121.861 25.1742 121.41 25.2955 120.918 25.2955ZM127.619 25V7.54545H132.46V25H127.619ZM130.051 5.29545C129.331 5.29545 128.714 5.05682 128.199 4.57954C127.691 4.0947 127.438 3.51515 127.438 2.84091C127.438 2.17424 127.691 1.60227 128.199 1.125C128.714 0.640151 129.331 0.397726 130.051 0.397726C130.771 0.397726 131.384 0.640151 131.892 1.125C132.407 1.60227 132.665 2.17424 132.665 2.84091C132.665 3.51515 132.407 4.0947 131.892 4.57954C131.384 5.05682 130.771 5.29545 130.051 5.29545ZM142.77 25.2841C141.444 25.2841 140.243 24.9432 139.168 24.2614C138.099 23.572 137.251 22.5606 136.622 21.2273C136.001 19.8864 135.69 18.2424 135.69 16.2955C135.69 14.2955 136.012 12.6326 136.656 11.3068C137.3 9.97348 138.156 8.97727 139.224 8.31818C140.3 7.65152 141.478 7.31818 142.759 7.31818C143.736 7.31818 144.55 7.48485 145.202 7.81818C145.861 8.14394 146.391 8.55303 146.793 9.04545C147.202 9.5303 147.512 10.0076 147.724 10.4773H147.872V1.72727H152.702V25H147.929V22.2045H147.724C147.497 22.6894 147.175 23.1705 146.759 23.6477C146.349 24.1174 145.815 24.5076 145.156 24.8182C144.505 25.1288 143.709 25.2841 142.77 25.2841ZM144.304 21.4318C145.084 21.4318 145.743 21.2197 146.281 20.7955C146.827 20.3636 147.243 19.7614 147.531 18.9886C147.827 18.2159 147.974 17.3106 147.974 16.2727C147.974 15.2348 147.83 14.3333 147.543 13.5682C147.255 12.803 146.838 12.2121 146.293 11.7955C145.747 11.3788 145.084 11.1705 144.304 11.1705C143.509 11.1705 142.838 11.3864 142.293 11.8182C141.747 12.25 141.334 12.8485 141.054 13.6136C140.774 14.3788 140.634 15.2652 140.634 16.2727C140.634 17.2879 140.774 18.1856 141.054 18.9659C141.342 19.7386 141.755 20.3447 142.293 20.7841C142.838 21.2159 143.509 21.4318 144.304 21.4318Z" fill="#687980"/>
</svg>
